#!OML:ASF F:\VICON\USERDATA\INSTALL\Justin_Nancy\Justin_Nancy.ASF
:FULLY-SPECIFIED
:DEGREES
110
root 0.442032 17.1637 -27.3407 6.15207 -6.37389 -3.55201
lowerback 5.83626 3.28894 3.28705
upperback 1.24612 4.61493 1.96981
thorax -1.88361 2.2853 -0.145596
lowerneck -12.5345 -3.76319 -8.99611
upperneck 18.9767 -4.53251 5.99965
head 8.30099 -2.20445 3.00766
rclavicle 1.59028e-014 1.07344e-014
rhumerus -28.843 -7.71253 -83.0364
rradius 30.2661
rwrist 7.3774
rhand -14.5827 10.4283
rfingers 7.12502
rthumb 11.5672 -19.2325
lclavicle 1.59028e-014 1.07344e-014
lhumerus -37.2375 23.6137 74.6589
lradius 22.5111
lwrist -14.7729
lhand -10.8961 22.1776
lfingers 7.12502
lthumb 15.1206 51.6053
rfemur 13.5294 7.48316 30.1646
rtibia 5.87298
rfoot -13.2514 -8.92916
rtoes -1.19712
lfemur -37.8594 -4.11679 -11.9235
ltibia 23.0371
lfoot -9.92816 8.53683
ltoes -2.56802
111
root 0.454641 17.1582 -27.2162 6.38227 -6.52009 -3.58978
lowerback 5.58497 3.35365 3.40755
upperback 1.20579 4.69483 1.84837
thorax -1.76321 2.32613 -0.326397
lowerneck -12.8171 -3.82503 -8.93027
upperneck 19.2603 -4.64794 6.1384
head 8.45837 -2.23756 3.03023
rclavicle -4.09496e-014 -5.96354e-015
rhumerus -28.7228 -7.8543 -83.2686
rradius 30.2063
rwrist 6.46197
rhand -14.819 11.4905
rfingers 7.12502
rthumb 11.3393 -18.1829
lclavicle -4.09496e-014 -5.96354e-015
lhumerus -37.3305 23.7837 74.3196
lradius 22.285
lwrist -15.0344
lhand -11.6766 20.4053
lfingers 7.12502
lthumb 14.3686 49.888
rfemur 14.2447 7.67519 30.1082
rtibia 5.00026
rfoot -12.394 -8.63458
rtoes -0.0182061
lfemur -37.7608 -4.27883 -11.8569
ltibia 23.3287
lfoot -9.90402 8.61957
ltoes -1.78714
112
root 0.468544 17.1543 -27.0891 6.55386 -6.71566 -3.60799
lowerback 5.41136 3.42706 3.40278
upperback 1.1868 4.78382 1.81195
thorax -1.68074 2.37177 -0.355574
lowerneck -13.2251 -3.81844 -8.79533
upperneck 19.3791 -4.63552 6.12795
head 8.56794 -2.2166 3.00242
rclavicle 1.12313e-014 2.54444e-014
rhumerus -28.5556 -7.99117 -83.3285
rradius 30.1815
rwrist 6.07647
rhand -14.7584 11.727
rfingers 7.12502
rthumb 11.3978 -17.9432
lclavicle 1.12313e-014 2.54444e-014
lhumerus -37.4378 24.3342 73.9025
lradius 21.8146
lwrist -15.661
lhand -10.471 20.4617
lfingers 7.12502
lthumb 15.5301 49.8581
rfemur 14.7418 7.9057 30.0234
rtibia 4.72323
rfoot -11.4499 -8.34971
rtoes 1.61226
lfemur -37.4927 -4.4973 -11.8038
ltibia 23.5274
lfoot -9.96084 8.67234
ltoes -0.720463
113
root 0.476677 17.1593 -26.9713 6.71841 -6.55915 -3.47017
lowerback 5.29448 3.32352 3.16097
upperback 1.04561 4.63376 1.83898
thorax -1.78687 2.29581 -0.183575
lowerneck -12.9167 -3.7908 -8.72506
upperneck 19.0726 -4.58684 5.93746
head 8.39844 -2.21115 2.9318
rclavicle -5.1684e-015 -6.75868e-015
rhumerus -28.627 -7.82812 -83.3427
rradius 30.2279
rwrist 5.92713
rhand -14.8559 11.2113
rfingers 7.12502
rthumb 11.3037 -18.4641
lclavicle -5.1684e-015 -6.75868e-015
lhumerus -37.8919 25.2443 73.2712
lradius 21.3359
lwrist -16.4152
lhand -10.9421 20.4476
lfingers 7.12502
lthumb 15.0762 49.8786
rfemur 15.1073 7.76902 29.8479
rtibia 4.45198
rfoot -10.7908 -8.18717
rtoes 2.23611
lfemur -37.3087 -4.53832 -12.1438
ltibia 23.6536
lfoot -9.82859 8.27609
ltoes -1.39927
114
root 0.487281 17.1784 -26.8496 6.87502 -6.2596 -3.30553
lowerback 5.22446 3.19482 2.98277
upperback 0.873612 4.45648 1.84068
thorax -1.94301 2.20544 -0.0746918
lowerneck -12.6363 -3.83851 -8.77954
upperneck 18.8774 -4.64423 5.87033
head 8.28678 -2.25237 2.91266
rclavicle 3.49861e-014 6.36111e-015
rhumerus -28.7785 -7.98748 -83.2267
rradius 30.1967
rwrist 6.39969
rhand -14.8197 10.7058
rfingers 7.12502
rthumb 11.3387 -18.9677
lclavicle 3.49861e-014 6.36111e-015
lhumerus -38.2215 25.8706 72.853
lradius 20.8876
lwrist -17.0559
lhand -11.0789 20.8626
lfingers 7.12502
lthumb 14.9445 50.3034
rfemur 15.5112 7.49092 29.6461
rtibia 3.92899
rfoot -10.3148 -8.04986
rtoes 1.54645
lfemur -37.1373 -4.62158 -12.5987
ltibia 23.6956
lfoot -9.20916 7.85656
ltoes -2.17575
115
root 0.499096 17.2063 -26.7222 7.07885 -6.05524 -3.17773
lowerback 5.05528 3.13094 2.83529
upperback 0.818834 4.35811 1.82412
thorax -1.91673 2.15765 0.00437514
lowerneck -12.8113 -3.94291 -8.8333
upperneck 18.8433 -4.76628 5.89583
head 8.31919 -2.3083 2.91351
rclavicle -1.42131e-014 1.47101e-014
rhumerus -28.6843 -8.31204 -83.0871
rradius 30.1841
rwrist 7.40537
rhand -14.5104 10.1227
rfingers 7.12502
rthumb 11.6369 -19.5341
lclavicle -1.42131e-014 1.47101e-014
lhumerus -38.1099 26.0356 72.8944
lradius 20.5716
lwrist -17.4272
lhand -11.1946 21.55
lfingers 7.12502
lthumb 14.833 50.9991
rfemur 15.9078 7.31962 29.4535
rtibia 3.34462
rfoot -9.82822 -7.90922
rtoes 0.35197
lfemur -37.0032 -4.70894 -12.9718
ltibia 23.665
lfoot -8.03435 7.59036
ltoes -1.59218
